<svg id="svg" version="1.1" xmlns="http://www.w3.org/2000/svg" xmlns:xlink="http://www.w3.org/1999/xlink" width="400" height="265.39379474940336" viewBox="0, 0, 400,265.39379474940336"><g id="svgg"><path id="path0" d="M132.554 39.244 C 131.079 39.339,129.706 39.552,129.502 39.718 C 129.298 39.885,128.253 40.107,127.180 40.212 C 126.106 40.318,124.912 40.569,124.525 40.771 C 124.139 40.973,123.341 41.139,122.753 41.140 C 122.165 41.141,121.442 41.311,121.147 41.518 C 120.852 41.724,120.138 41.981,119.562 42.088 C 118.985 42.196,118.275 42.435,117.983 42.622 C 117.691 42.808,117.004 43.042,116.457 43.142 C 115.909 43.242,115.461 43.430,115.461 43.560 C 115.461 43.689,115.311 43.796,115.128 43.796 C 114.794 43.796,109.043 46.482,108.295 46.988 C 108.076 47.136,107.491 47.442,106.995 47.669 C 106.499 47.896,105.924 48.252,105.715 48.460 C 105.507 48.668,105.185 48.839,104.999 48.839 C 104.813 48.839,104.314 49.148,103.890 49.527 C 103.466 49.905,102.760 50.376,102.322 50.573 C 101.885 50.770,100.929 51.475,100.199 52.139 C 99.469 52.803,98.639 53.423,98.355 53.516 C 97.592 53.766,89.207 62.109,88.784 63.039 C 88.584 63.477,87.906 64.394,87.276 65.076 C 86.647 65.759,85.806 66.834,85.409 67.465 C 84.233 69.333,84.049 69.615,83.145 70.936 C 82.671 71.630,82.283 72.358,82.283 72.554 C 82.283 72.750,82.044 73.127,81.752 73.391 C 81.460 73.655,81.221 74.077,81.221 74.328 C 81.221 74.580,81.049 74.928,80.840 75.102 C 80.630 75.276,80.384 75.760,80.292 76.178 C 80.200 76.596,79.954 77.080,79.744 77.254 C 79.534 77.428,79.363 77.815,79.363 78.114 C 79.363 78.413,79.202 78.846,79.005 79.077 C 78.645 79.498,77.987 81.245,77.447 83.212 C 77.287 83.796,76.996 84.509,76.800 84.797 C 76.604 85.085,76.443 85.622,76.442 85.991 C 76.441 86.360,76.274 86.980,76.072 87.368 C 75.869 87.756,75.616 88.709,75.509 89.485 C 75.403 90.261,75.165 91.138,74.982 91.434 C 74.798 91.729,74.580 93.012,74.497 94.286 C 74.414 95.559,74.191 96.873,74.002 97.205 C 73.490 98.102,73.504 113.072,74.017 113.691 C 74.232 113.950,74.432 115.065,74.511 116.452 C 74.585 117.732,74.803 119.032,74.996 119.341 C 75.189 119.650,75.430 120.633,75.531 121.526 C 75.632 122.419,75.879 123.286,76.079 123.452 C 76.279 123.618,76.443 124.085,76.443 124.489 C 76.443 124.893,76.680 125.745,76.968 126.381 C 77.257 127.017,77.500 127.837,77.508 128.202 C 77.515 128.567,77.697 129.097,77.912 129.381 C 78.138 129.680,78.301 130.473,78.301 131.274 C 78.301 132.867,78.317 132.857,75.517 132.956 C 74.496 132.991,73.536 133.124,73.383 133.251 C 73.231 133.378,71.378 133.561,69.267 133.659 C 66.979 133.765,65.213 133.970,64.897 134.166 C 64.605 134.347,63.676 134.582,62.832 134.687 C 61.987 134.792,60.972 135.047,60.575 135.254 C 60.179 135.461,59.677 135.631,59.461 135.632 C 58.943 135.634,55.361 137.001,53.816 137.787 C 52.765 138.321,52.135 138.648,51.758 138.856 C 51.539 138.977,50.987 139.245,50.530 139.451 C 50.073 139.658,49.618 139.958,49.519 140.119 C 49.420 140.280,49.160 140.411,48.942 140.411 C 48.723 140.411,47.732 141.068,46.738 141.871 C 45.744 142.674,44.806 143.331,44.653 143.331 C 44.268 143.331,36.364 151.173,36.364 151.555 C 36.364 151.912,34.205 154.745,33.933 154.745 C 33.833 154.745,33.673 155.101,33.577 155.538 C 33.481 155.974,33.291 156.400,33.154 156.485 C 33.017 156.570,32.730 157.019,32.516 157.483 C 32.302 157.948,32.006 158.537,31.857 158.792 C 31.177 159.959,31.037 160.227,30.787 160.849 C 30.641 161.214,30.358 161.812,30.160 162.177 C 29.962 162.541,29.720 163.198,29.622 163.636 C 29.524 164.074,29.283 164.791,29.085 165.229 C 28.586 166.337,27.920 168.717,27.712 170.134 C 27.616 170.787,27.352 171.606,27.124 171.953 C 26.507 172.894,26.507 188.088,27.124 189.030 C 27.352 189.376,27.616 190.195,27.712 190.849 C 27.920 192.265,28.586 194.645,29.085 195.753 C 29.283 196.191,29.527 196.908,29.628 197.346 C 29.818 198.165,30.202 199.024,31.405 201.327 C 31.787 202.057,32.472 203.405,32.928 204.323 C 33.384 205.241,34.105 206.373,34.531 206.839 C 34.956 207.305,35.381 207.926,35.474 208.219 C 35.800 209.246,44.381 217.916,45.821 218.674 C 46.278 218.914,47.355 219.589,48.214 220.173 C 50.505 221.729,57.148 224.961,58.660 225.254 C 59.171 225.353,59.827 225.580,60.119 225.759 C 60.411 225.937,61.304 226.165,62.104 226.264 C 62.903 226.363,63.711 226.572,63.899 226.728 C 64.087 226.884,65.942 227.121,68.020 227.255 C 70.098 227.388,72.073 227.611,72.408 227.750 C 73.196 228.077,326.387 228.096,326.589 227.769 C 326.669 227.641,328.258 227.451,330.122 227.346 C 331.985 227.241,333.869 226.998,334.307 226.805 C 334.745 226.613,335.698 226.374,336.426 226.274 C 337.155 226.175,338.074 225.926,338.470 225.721 C 338.867 225.516,339.406 225.344,339.668 225.339 C 339.931 225.334,340.624 225.100,341.208 224.818 C 341.792 224.535,342.524 224.301,342.834 224.296 C 343.145 224.291,343.548 224.107,343.729 223.889 C 343.911 223.670,344.268 223.490,344.522 223.490 C 344.777 223.490,345.289 223.251,345.660 222.960 C 346.031 222.668,346.495 222.421,346.691 222.411 C 347.357 222.378,352.867 218.872,353.555 218.043 C 353.734 217.828,354.057 217.651,354.273 217.651 C 354.763 217.651,361.262 211.258,362.232 209.821 C 362.626 209.237,363.314 208.281,363.762 207.697 C 364.209 207.113,364.733 206.325,364.925 205.946 C 365.118 205.567,365.564 204.921,365.916 204.511 C 366.268 204.101,366.556 203.570,366.556 203.330 C 366.556 203.090,366.669 202.780,366.808 202.641 C 367.280 202.168,368.352 199.956,368.550 199.048 C 368.659 198.550,368.911 197.906,369.112 197.618 C 369.312 197.330,369.476 196.897,369.476 196.656 C 369.476 196.414,369.642 196.079,369.844 195.910 C 370.047 195.742,370.298 194.924,370.402 194.093 C 370.506 193.262,370.758 192.343,370.962 192.051 C 371.167 191.760,371.334 191.004,371.334 190.372 C 371.334 189.741,371.536 188.842,371.783 188.374 C 372.171 187.638,372.231 186.584,372.231 180.491 C 372.231 174.398,372.171 173.344,371.783 172.608 C 371.536 172.141,371.334 171.269,371.334 170.670 C 371.334 170.072,371.166 169.258,370.961 168.862 C 370.756 168.466,370.503 167.546,370.398 166.818 C 370.293 166.090,370.059 165.315,369.879 165.096 C 369.698 164.877,369.480 164.459,369.393 164.167 C 368.953 162.684,368.223 160.910,367.813 160.326 C 367.560 159.965,367.352 159.472,367.352 159.230 C 367.352 158.989,367.173 158.642,366.954 158.461 C 366.735 158.279,366.556 157.922,366.556 157.668 C 366.556 157.413,366.193 156.801,365.750 156.307 C 365.307 155.812,364.783 155.050,364.586 154.612 C 364.389 154.174,363.676 153.179,363.003 152.400 C 362.329 151.622,361.778 150.860,361.778 150.707 C 361.778 150.272,354.717 143.331,354.274 143.331 C 354.058 143.331,353.734 143.155,353.555 142.939 C 353.281 142.608,352.518 142.061,349.199 139.814 C 349.038 139.704,348.607 139.494,348.242 139.347 C 347.877 139.200,346.981 138.731,346.251 138.303 C 345.521 137.876,344.729 137.519,344.492 137.509 C 344.254 137.500,343.911 137.313,343.729 137.094 C 343.548 136.875,343.143 136.695,342.830 136.695 C 342.517 136.695,341.816 136.457,341.271 136.165 C 340.726 135.873,340.035 135.634,339.736 135.634 C 339.436 135.634,338.857 135.461,338.449 135.250 C 338.041 135.039,337.062 134.782,336.272 134.679 C 335.483 134.575,334.547 134.302,334.193 134.072 C 333.631 133.707,331.724 133.640,319.329 133.556 C 311.508 133.503,305.000 133.356,304.867 133.229 C 304.565 132.942,304.634 130.606,304.956 130.215 C 305.087 130.057,305.282 128.792,305.389 127.405 C 305.507 125.887,305.747 124.635,305.993 124.259 C 306.598 123.333,306.592 109.874,305.987 108.693 C 305.762 108.255,305.516 107.089,305.441 106.102 C 305.365 105.115,305.166 104.143,304.998 103.941 C 304.830 103.738,304.621 102.933,304.533 102.152 C 304.446 101.370,304.218 100.431,304.028 100.066 C 303.837 99.701,303.609 98.955,303.521 98.407 C 303.432 97.860,303.248 97.412,303.112 97.412 C 302.975 97.412,302.783 97.084,302.685 96.682 C 302.587 96.281,302.286 95.536,302.016 95.027 C 301.747 94.518,301.526 93.880,301.526 93.609 C 301.526 93.338,301.287 92.813,300.995 92.441 C 300.703 92.070,300.464 91.598,300.464 91.393 C 300.464 91.188,300.231 90.769,299.945 90.462 C 299.660 90.156,299.174 89.414,298.867 88.814 C 297.739 86.612,297.449 86.138,296.828 85.478 C 296.480 85.107,295.782 84.187,295.277 83.432 C 293.931 81.418,292.810 80.228,286.576 74.187 C 285.800 73.435,282.801 71.300,281.155 70.327 C 280.388 69.874,279.761 69.395,279.761 69.262 C 279.761 69.130,279.433 68.943,279.031 68.847 C 278.630 68.751,278.169 68.569,278.008 68.443 C 277.417 67.981,275.211 66.888,274.869 66.888 C 274.676 66.888,274.375 66.716,274.201 66.507 C 274.027 66.297,273.543 66.051,273.125 65.959 C 272.708 65.867,272.223 65.621,272.050 65.411 C 271.876 65.201,271.445 65.030,271.092 65.030 C 270.739 65.030,269.982 64.791,269.409 64.499 C 268.837 64.207,268.020 63.968,267.595 63.968 C 267.169 63.968,266.686 63.806,266.521 63.608 C 266.356 63.409,265.485 63.170,264.584 63.076 C 263.683 62.982,262.758 62.741,262.528 62.541 C 262.255 62.303,261.113 62.129,259.231 62.038 C 257.647 61.962,256.220 61.768,256.059 61.607 C 255.660 61.207,246.534 61.204,246.135 61.603 C 245.976 61.762,244.608 61.954,243.095 62.031 C 241.385 62.118,240.115 62.315,239.736 62.552 C 239.401 62.762,238.505 63.002,237.745 63.085 C 236.985 63.167,236.099 63.400,235.776 63.602 C 235.452 63.803,234.913 63.968,234.577 63.968 C 234.242 63.968,233.521 64.207,232.976 64.499 C 232.432 64.791,231.740 65.030,231.440 65.030 C 230.974 65.030,229.898 65.496,228.268 66.404 C 228.049 66.526,227.691 66.693,227.472 66.776 C 227.253 66.859,226.894 67.038,226.676 67.174 C 226.457 67.311,225.979 67.554,225.614 67.714 C 225.249 67.875,224.771 68.111,224.552 68.239 C 224.333 68.368,223.796 68.651,223.358 68.869 C 222.334 69.380,220.371 70.745,218.179 72.471 C 217.524 72.988,216.629 73.636,216.191 73.913 C 215.753 74.190,213.051 76.783,210.186 79.677 C 207.322 82.570,204.870 84.937,204.738 84.937 C 204.375 84.937,203.638 83.990,203.217 82.981 C 203.010 82.487,202.710 82.001,202.549 81.901 C 202.388 81.802,202.256 81.444,202.256 81.105 C 202.256 80.767,202.089 80.351,201.884 80.181 C 201.679 80.011,201.435 79.564,201.340 79.187 C 201.246 78.811,200.995 78.329,200.783 78.118 C 200.571 77.906,200.398 77.517,200.398 77.253 C 200.398 76.989,200.227 76.631,200.017 76.457 C 199.807 76.283,199.561 75.799,199.469 75.382 C 199.377 74.964,199.131 74.480,198.921 74.306 C 198.712 74.132,198.540 73.812,198.540 73.596 C 198.540 73.379,198.185 72.754,197.752 72.206 C 197.318 71.659,196.834 70.925,196.676 70.576 C 196.029 69.143,194.185 66.454,191.976 63.723 C 189.745 60.965,181.934 53.455,179.972 52.181 C 179.321 51.759,178.485 51.121,178.114 50.763 C 177.742 50.406,177.080 49.944,176.642 49.737 C 176.204 49.529,175.129 48.897,174.253 48.331 C 173.378 47.765,172.004 46.977,171.201 46.581 C 170.398 46.184,169.562 45.761,169.343 45.641 C 168.370 45.105,166.211 44.110,165.362 43.806 C 163.169 43.021,162.673 42.806,162.380 42.513 C 162.210 42.343,161.766 42.199,161.393 42.194 C 161.021 42.189,160.239 41.954,159.655 41.672 C 159.071 41.390,158.175 41.155,157.664 41.149 C 157.153 41.143,156.419 40.973,156.032 40.771 C 155.645 40.569,154.454 40.316,153.385 40.209 C 152.315 40.102,151.189 39.849,150.883 39.649 C 150.243 39.229,137.260 38.943,132.554 39.244 " stroke="none" fill="#fcfcfc" fill-rule="evenodd"></path><path id="path1" d="M135.103 24.818 C 135.103 25.155,134.454 25.216,130.856 25.216 C 126.786 25.216,126.609 25.238,126.609 25.747 C 126.609 26.244,126.432 26.277,123.797 26.277 C 121.209 26.277,120.974 26.320,120.847 26.808 C 120.730 27.256,120.485 27.339,119.279 27.339 C 118.186 27.339,117.850 27.433,117.850 27.737 C 117.850 28.053,117.467 28.135,115.992 28.135 C 114.311 28.135,114.134 28.186,114.134 28.666 C 114.134 29.127,113.957 29.197,112.799 29.197 C 111.856 29.197,111.418 29.314,111.310 29.595 C 111.216 29.841,110.813 29.993,110.257 29.993 C 109.533 29.993,109.356 30.098,109.356 30.524 C 109.356 30.986,109.179 31.055,108.004 31.055 C 106.876 31.055,106.629 31.143,106.514 31.586 C 106.409 31.985,106.151 32.117,105.477 32.117 C 104.855 32.117,104.579 32.239,104.579 32.515 C 104.579 32.793,104.298 32.913,103.650 32.913 C 102.898 32.913,102.721 33.014,102.721 33.444 C 102.721 33.874,102.544 33.975,101.792 33.975 C 101.143 33.975,100.863 34.095,100.863 34.373 C 100.863 34.594,100.627 34.771,100.332 34.771 C 99.978 34.771,99.801 34.948,99.801 35.302 C 99.801 35.732,99.624 35.833,98.872 35.833 C 98.255 35.833,97.943 35.957,97.943 36.203 C 97.943 36.608,97.385 36.894,96.594 36.894 C 96.314 36.894,96.085 37.074,96.085 37.293 C 96.085 37.514,95.849 37.691,95.554 37.691 C 95.200 37.691,95.023 37.868,95.023 38.222 C 95.023 38.651,94.846 38.752,94.094 38.752 C 93.445 38.752,93.165 38.873,93.165 39.151 C 93.165 39.372,92.929 39.549,92.634 39.549 C 92.280 39.549,92.104 39.726,92.104 40.080 C 92.104 40.372,91.984 40.610,91.838 40.610 C 91.692 40.610,91.334 40.849,91.042 41.141 C 90.750 41.433,90.268 41.672,89.972 41.672 C 89.675 41.672,89.364 41.851,89.280 42.070 C 89.196 42.289,88.961 42.468,88.757 42.468 C 88.554 42.468,88.388 42.707,88.388 42.999 C 88.388 43.353,88.211 43.530,87.857 43.530 C 87.562 43.530,87.326 43.707,87.326 43.928 C 87.326 44.147,87.147 44.326,86.928 44.326 C 86.706 44.326,86.530 44.562,86.530 44.857 C 86.530 45.211,86.353 45.388,85.999 45.388 C 85.704 45.388,85.468 45.565,85.468 45.786 C 85.468 46.005,85.277 46.184,85.045 46.184 C 84.812 46.184,84.559 46.423,84.483 46.715 C 84.383 47.096,84.121 47.246,83.554 47.246 C 82.987 47.246,82.725 47.396,82.625 47.777 C 82.549 48.069,82.321 48.308,82.119 48.308 C 81.876 48.308,81.752 48.623,81.752 49.237 C 81.752 49.989,81.651 50.166,81.221 50.166 C 80.926 50.166,80.690 50.343,80.690 50.564 C 80.690 50.783,80.500 50.962,80.267 50.962 C 80.034 50.962,79.782 51.201,79.705 51.493 C 79.629 51.785,79.401 52.024,79.199 52.024 C 78.997 52.024,78.832 52.263,78.832 52.555 C 78.832 52.909,78.655 53.086,78.301 53.086 C 78.006 53.086,77.770 53.263,77.770 53.484 C 77.770 53.703,77.591 53.882,77.372 53.882 C 77.153 53.882,76.974 54.107,76.974 54.382 C 76.974 54.658,76.737 54.944,76.443 55.021 C 76.057 55.122,75.912 55.383,75.912 55.980 C 75.912 56.555,75.785 56.802,75.489 56.802 C 75.257 56.802,75.004 57.040,74.928 57.332 C 74.851 57.624,74.624 57.863,74.422 57.863 C 74.220 57.863,74.054 58.034,74.054 58.244 C 74.054 58.453,73.816 58.700,73.524 58.792 C 73.152 58.910,72.993 59.194,72.993 59.739 C 72.993 60.254,72.858 60.518,72.595 60.518 C 72.376 60.518,72.196 60.743,72.196 61.017 C 72.196 61.294,71.959 61.579,71.666 61.656 C 71.285 61.756,71.135 62.018,71.135 62.585 C 71.135 63.152,70.985 63.415,70.604 63.514 C 70.222 63.614,70.073 63.876,70.073 64.446 C 70.073 64.906,69.906 65.303,69.675 65.391 C 69.425 65.487,69.277 65.893,69.277 66.481 C 69.277 67.242,69.176 67.419,68.746 67.419 C 68.454 67.419,68.215 67.585,68.215 67.788 C 68.215 67.992,68.036 68.227,67.817 68.311 C 67.536 68.419,67.419 68.857,67.419 69.799 C 67.419 70.958,67.348 71.135,66.888 71.135 C 66.462 71.135,66.357 71.312,66.357 72.033 C 66.357 72.708,66.225 72.965,65.826 73.070 C 65.438 73.171,65.295 73.432,65.295 74.038 C 65.295 74.530,65.134 74.929,64.897 75.020 C 64.620 75.126,64.499 75.559,64.499 76.441 C 64.499 77.485,64.406 77.733,63.968 77.847 C 63.525 77.963,63.437 78.209,63.437 79.338 C 63.437 80.363,63.341 80.690,63.039 80.690 C 62.735 80.690,62.641 81.026,62.641 82.119 C 62.641 83.325,62.558 83.570,62.110 83.687 C 61.651 83.807,61.579 84.049,61.579 85.480 C 61.579 86.750,61.471 87.214,61.115 87.474 C 60.738 87.749,60.633 88.316,60.559 90.489 C 60.488 92.568,60.385 93.165,60.095 93.165 C 59.514 93.165,59.539 116.735,60.119 116.958 C 60.420 117.073,60.518 117.559,60.518 118.940 L 60.518 120.770 58.767 120.770 C 57.241 120.770,57.000 120.837,56.879 121.301 C 56.761 121.749,56.516 121.831,55.311 121.831 C 54.218 121.831,53.882 121.925,53.882 122.230 C 53.882 122.529,53.561 122.628,52.586 122.628 C 51.513 122.628,51.266 122.719,51.151 123.159 C 51.044 123.565,50.789 123.689,50.058 123.689 C 49.387 123.689,49.104 123.808,49.104 124.088 C 49.104 124.344,48.845 124.487,48.374 124.489 C 47.238 124.495,46.450 124.778,46.450 125.180 C 46.450 125.422,46.138 125.547,45.539 125.547 C 44.861 125.547,44.585 125.683,44.459 126.078 C 44.367 126.370,44.120 126.609,43.910 126.609 C 43.701 126.609,43.530 126.788,43.530 127.007 C 43.530 127.283,43.253 127.405,42.632 127.405 C 41.957 127.405,41.700 127.537,41.595 127.936 C 41.502 128.292,41.233 128.467,40.782 128.467 C 40.086 128.467,38.752 129.490,38.752 130.024 C 38.752 130.191,38.340 130.325,37.823 130.325 C 37.071 130.325,36.894 130.426,36.894 130.856 C 36.894 131.210,36.718 131.387,36.364 131.387 C 36.072 131.387,35.833 131.552,35.833 131.754 C 35.833 131.956,35.594 132.184,35.302 132.260 C 35.010 132.336,34.771 132.589,34.771 132.822 C 34.771 133.055,34.592 133.245,34.373 133.245 C 34.154 133.245,33.975 133.411,33.975 133.613 C 33.975 133.825,33.578 134.057,33.046 134.156 C 32.534 134.252,32.117 134.490,32.117 134.686 C 32.117 134.881,31.878 135.103,31.586 135.180 C 31.294 135.256,31.055 135.509,31.055 135.742 C 31.055 135.974,30.942 136.165,30.803 136.165 C 30.455 136.165,29.197 137.359,29.197 137.690 C 29.197 137.839,28.958 138.023,28.666 138.099 C 28.374 138.176,28.135 138.429,28.135 138.661 C 28.135 138.894,27.956 139.084,27.737 139.084 C 27.459 139.084,27.339 139.364,27.339 140.013 C 27.339 140.765,27.238 140.942,26.808 140.942 C 26.516 140.942,26.277 141.108,26.277 141.309 C 26.277 141.511,26.038 141.739,25.747 141.815 C 25.455 141.892,25.216 142.145,25.216 142.377 C 25.216 142.610,25.036 142.800,24.818 142.800 C 24.596 142.800,24.419 143.036,24.419 143.331 C 24.419 143.685,24.242 143.862,23.889 143.862 C 23.459 143.862,23.358 144.039,23.358 144.791 C 23.358 145.440,23.238 145.720,22.960 145.720 C 22.741 145.720,22.561 145.885,22.561 146.087 C 22.561 146.289,22.322 146.517,22.031 146.593 C 21.650 146.693,21.500 146.955,21.500 147.522 C 21.500 148.089,21.350 148.352,20.969 148.451 C 20.562 148.557,20.438 148.813,20.438 149.544 C 20.438 150.215,20.320 150.498,20.040 150.498 C 19.821 150.498,19.642 150.663,19.642 150.865 C 19.642 151.067,19.403 151.295,19.111 151.371 C 18.723 151.472,18.580 151.733,18.580 152.339 C 18.580 152.832,18.418 153.231,18.182 153.321 C 17.903 153.428,17.784 153.863,17.784 154.773 C 17.784 155.895,17.711 156.072,17.253 156.072 C 16.831 156.072,16.722 156.249,16.722 156.937 C 16.722 157.515,16.546 157.912,16.191 158.133 C 15.788 158.385,15.660 158.752,15.660 159.657 C 15.660 160.540,15.557 160.849,15.262 160.849 C 14.958 160.849,14.864 161.185,14.864 162.278 C 14.864 163.484,14.781 163.729,14.333 163.846 C 13.854 163.971,13.802 164.208,13.802 166.266 C 13.802 168.116,13.727 168.547,13.404 168.547 C 13.069 168.547,13.006 169.151,13.006 172.395 C 13.006 176.067,12.982 176.244,12.475 176.244 C 11.966 176.244,11.944 176.421,11.944 180.491 C 11.944 184.561,11.966 184.738,12.475 184.738 C 12.982 184.738,13.006 184.915,13.006 188.587 C 13.006 191.831,13.069 192.435,13.404 192.435 C 13.727 192.435,13.802 192.866,13.802 194.716 C 13.802 196.774,13.854 197.011,14.333 197.136 C 14.773 197.251,14.864 197.498,14.864 198.579 C 14.864 199.494,14.983 199.930,15.262 200.037 C 15.541 200.144,15.660 200.579,15.660 201.488 C 15.660 202.610,15.733 202.787,16.191 202.787 C 16.623 202.787,16.722 202.964,16.722 203.741 C 16.722 204.471,16.846 204.727,17.253 204.834 C 17.692 204.948,17.784 205.196,17.784 206.269 C 17.784 207.244,17.882 207.565,18.182 207.565 C 18.450 207.565,18.580 207.833,18.580 208.386 C 18.580 208.984,18.724 209.245,19.111 209.346 C 19.511 209.450,19.642 209.708,19.642 210.391 C 19.642 210.952,19.793 211.356,20.040 211.450 C 20.259 211.534,20.438 211.769,20.438 211.973 C 20.438 212.176,20.677 212.342,20.969 212.342 C 21.397 212.342,21.500 212.519,21.500 213.254 C 21.500 213.932,21.635 214.208,22.031 214.333 C 22.322 214.426,22.561 214.673,22.561 214.882 C 22.561 215.091,22.741 215.262,22.960 215.262 C 23.228 215.262,23.358 215.530,23.358 216.083 C 23.358 216.681,23.502 216.942,23.889 217.043 C 24.182 217.120,24.419 217.405,24.419 217.682 C 24.419 217.957,24.599 218.182,24.818 218.182 C 25.036 218.182,25.216 218.372,25.216 218.605 C 25.216 218.837,25.455 219.090,25.747 219.167 C 26.119 219.264,26.277 219.529,26.277 220.053 C 26.277 220.567,26.443 220.853,26.808 220.969 C 27.100 221.061,27.339 221.308,27.339 221.518 C 27.339 221.727,27.518 221.898,27.737 221.898 C 27.956 221.898,28.135 222.088,28.135 222.321 C 28.135 222.553,28.374 222.806,28.666 222.883 C 28.958 222.959,29.197 223.190,29.197 223.397 C 29.197 223.603,29.376 223.841,29.595 223.925 C 29.814 224.009,29.993 224.244,29.993 224.448 C 29.993 224.651,30.232 224.818,30.524 224.818 C 30.833 224.818,31.055 224.994,31.055 225.241 C 31.055 225.473,31.294 225.726,31.586 225.802 C 31.878 225.879,32.117 226.106,32.117 226.308 C 32.117 226.510,32.282 226.676,32.484 226.676 C 32.686 226.676,32.914 226.914,32.990 227.206 C 33.091 227.593,33.352 227.737,33.950 227.737 C 34.524 227.737,34.771 227.864,34.771 228.160 C 34.771 228.393,35.010 228.646,35.302 228.722 C 35.594 228.798,35.833 229.026,35.833 229.228 C 35.833 229.430,36.058 229.595,36.333 229.595 C 36.609 229.595,36.895 229.832,36.971 230.126 C 37.072 230.513,37.333 230.657,37.931 230.657 C 38.484 230.657,38.752 230.787,38.752 231.055 C 38.752 231.274,38.918 231.453,39.120 231.453 C 39.322 231.453,39.549 231.692,39.626 231.984 C 39.725 232.365,39.988 232.515,40.557 232.515 C 41.017 232.515,41.414 232.682,41.503 232.913 C 41.587 233.132,41.825 233.311,42.031 233.311 C 42.238 233.311,42.469 233.550,42.545 233.842 C 42.645 234.223,42.907 234.373,43.474 234.373 C 44.041 234.373,44.304 234.523,44.403 234.904 C 44.510 235.310,44.765 235.435,45.496 235.435 C 46.167 235.435,46.450 235.553,46.450 235.833 C 46.450 236.108,46.727 236.231,47.348 236.231 C 48.023 236.231,48.280 236.363,48.385 236.762 C 48.498 237.193,48.747 237.293,49.715 237.293 C 50.528 237.293,50.954 237.419,51.058 237.691 C 51.166 237.972,51.604 238.089,52.546 238.089 C 53.705 238.089,53.882 238.159,53.882 238.620 C 53.882 239.085,54.059 239.151,55.311 239.151 C 56.516 239.151,56.761 239.234,56.879 239.681 C 57.000 240.145,57.241 240.212,58.776 240.212 C 60.094 240.212,60.572 240.312,60.687 240.610 C 60.811 240.935,61.450 241.009,64.129 241.009 C 67.242 241.009,67.419 241.037,67.419 241.539 C 67.419 242.070,67.596 242.070,199.494 242.070 C 331.346 242.070,331.570 242.069,331.708 241.539 C 331.837 241.046,332.070 241.009,335.009 241.009 C 337.576 241.009,338.201 240.934,338.325 240.610 C 338.439 240.313,338.914 240.212,340.199 240.212 C 341.698 240.212,341.939 240.144,342.060 239.681 C 342.177 239.234,342.422 239.151,343.628 239.151 C 344.879 239.151,345.056 239.085,345.056 238.620 C 345.056 238.153,345.233 238.089,346.516 238.089 C 347.637 238.089,347.976 237.996,347.976 237.691 C 347.976 237.413,348.256 237.293,348.905 237.293 C 349.657 237.293,349.834 237.192,349.834 236.762 C 349.834 236.301,350.011 236.231,351.170 236.231 C 352.112 236.231,352.550 236.114,352.658 235.833 C 352.742 235.614,353.027 235.435,353.291 235.435 C 354.056 235.435,354.612 235.143,354.612 234.743 C 354.612 234.539,354.851 234.373,355.143 234.373 C 355.497 234.373,355.674 234.196,355.674 233.842 C 355.674 233.412,355.850 233.311,356.603 233.311 C 357.251 233.311,357.532 233.191,357.532 232.913 C 357.532 232.645,357.800 232.515,358.353 232.515 C 358.951 232.515,359.212 232.371,359.313 231.984 C 359.389 231.690,359.675 231.453,359.951 231.453 C 360.226 231.453,360.451 231.274,360.451 231.055 C 360.451 230.836,360.680 230.657,360.960 230.657 C 361.751 230.657,362.309 230.371,362.309 229.965 C 362.309 229.762,362.459 229.593,362.641 229.591 C 363.046 229.585,364.167 228.439,364.167 228.032 C 364.167 227.870,364.406 227.737,364.698 227.737 C 365.052 227.737,365.229 227.560,365.229 227.206 C 365.229 226.911,365.406 226.676,365.627 226.676 C 365.846 226.676,366.025 226.496,366.025 226.277 C 366.025 226.009,366.293 225.879,366.846 225.879 C 367.431 225.879,367.706 225.733,367.800 225.373 C 367.873 225.094,368.160 224.807,368.439 224.734 C 368.717 224.661,368.945 224.411,368.945 224.179 C 368.945 223.946,369.058 223.756,369.197 223.756 C 369.748 223.756,370.803 222.472,370.803 221.801 C 370.803 221.278,370.937 221.102,371.334 221.102 C 371.688 221.102,371.865 220.925,371.865 220.571 C 371.865 220.276,372.042 220.040,372.263 220.040 C 372.482 220.040,372.661 219.875,372.661 219.673 C 372.661 219.471,372.900 219.243,373.192 219.167 C 373.484 219.090,373.723 218.851,373.723 218.636 C 373.723 218.420,373.962 218.181,374.253 218.105 C 374.640 218.004,374.784 217.743,374.784 217.145 C 374.784 216.592,374.914 216.324,375.182 216.324 C 375.404 216.324,375.581 216.088,375.581 215.793 C 375.581 215.439,375.758 215.262,376.111 215.262 C 376.541 215.262,376.642 215.085,376.642 214.333 C 376.642 213.684,376.762 213.404,377.040 213.404 C 377.262 213.404,377.439 213.168,377.439 212.873 C 377.439 212.519,377.616 212.342,377.969 212.342 C 378.396 212.342,378.500 212.165,378.500 211.444 C 378.500 210.770,378.632 210.512,379.031 210.407 C 379.418 210.306,379.562 210.045,379.562 209.448 C 379.562 208.895,379.692 208.626,379.960 208.626 C 380.238 208.626,380.358 208.346,380.358 207.697 C 380.358 206.945,380.459 206.768,380.889 206.768 C 381.316 206.768,381.420 206.591,381.420 205.868 C 381.420 205.312,381.573 204.909,381.818 204.814 C 382.099 204.707,382.216 204.268,382.216 203.326 C 382.216 202.168,382.287 201.991,382.747 201.991 C 383.214 201.991,383.278 201.814,383.278 200.531 C 383.278 199.248,383.342 199.071,383.809 199.071 C 384.275 199.071,384.340 198.894,384.340 197.611 C 384.340 196.490,384.432 196.151,384.738 196.151 C 385.062 196.151,385.136 195.709,385.136 193.762 C 385.136 191.551,385.175 191.374,385.667 191.374 C 386.189 191.374,386.198 191.197,386.198 180.491 C 386.198 169.785,386.189 169.608,385.667 169.608 C 385.175 169.608,385.136 169.432,385.136 167.220 C 385.136 165.273,385.062 164.831,384.738 164.831 C 384.432 164.831,384.340 164.492,384.340 163.371 C 384.340 162.088,384.275 161.911,383.809 161.911 C 383.342 161.911,383.278 161.734,383.278 160.451 C 383.278 159.168,383.214 158.991,382.747 158.991 C 382.281 158.991,382.216 158.814,382.216 157.532 C 382.216 156.411,382.124 156.072,381.818 156.072 C 381.540 156.072,381.420 155.791,381.420 155.143 C 381.420 154.391,381.319 154.214,380.889 154.214 C 380.459 154.214,380.358 154.037,380.358 153.285 C 380.358 152.636,380.238 152.356,379.960 152.356 C 379.682 152.356,379.562 152.075,379.562 151.427 C 379.562 150.675,379.461 150.498,379.031 150.498 C 378.603 150.498,378.500 150.321,378.500 149.587 C 378.500 148.909,378.365 148.632,377.969 148.507 C 377.678 148.414,377.439 148.167,377.439 147.958 C 377.439 147.749,377.259 147.578,377.040 147.578 C 376.762 147.578,376.642 147.298,376.642 146.649 C 376.642 145.897,376.541 145.720,376.111 145.720 C 375.758 145.720,375.581 145.543,375.581 145.189 C 375.581 144.894,375.404 144.658,375.182 144.658 C 374.964 144.658,374.784 144.429,374.784 144.149 C 374.784 143.358,374.498 142.800,374.092 142.800 C 373.889 142.800,373.723 142.561,373.723 142.269 C 373.723 141.916,373.546 141.739,373.192 141.739 C 372.897 141.739,372.661 141.562,372.661 141.340 C 372.661 141.121,372.482 140.942,372.263 140.942 C 372.042 140.942,371.865 140.706,371.865 140.411 C 371.865 140.058,371.688 139.881,371.334 139.881 C 370.980 139.881,370.803 139.704,370.803 139.350 C 370.803 139.055,370.626 138.819,370.405 138.819 C 370.157 138.819,370.007 138.568,370.007 138.158 C 370.007 137.784,369.776 137.352,369.476 137.165 C 369.184 136.982,368.945 136.683,368.945 136.499 C 368.945 136.294,368.586 136.165,368.016 136.165 C 367.264 136.165,367.087 136.063,367.087 135.634 C 367.087 135.280,366.910 135.103,366.556 135.103 C 366.202 135.103,366.025 134.926,366.025 134.572 C 366.025 134.277,365.848 134.041,365.627 134.041 C 365.408 134.041,365.229 133.862,365.229 133.643 C 365.229 133.422,364.993 133.245,364.698 133.245 C 364.344 133.245,364.167 133.068,364.167 132.714 C 364.167 132.422,364.001 132.183,363.797 132.183 C 363.594 132.183,363.359 132.004,363.275 131.785 C 363.179 131.535,362.773 131.387,362.185 131.387 C 361.424 131.387,361.248 131.287,361.248 130.856 C 361.248 130.561,361.071 130.325,360.849 130.325 C 360.630 130.325,360.451 130.154,360.451 129.945 C 360.451 129.736,360.212 129.489,359.920 129.396 C 359.628 129.303,359.390 129.057,359.390 128.847 C 359.390 128.592,359.094 128.467,358.491 128.467 C 357.817 128.467,357.559 128.335,357.455 127.936 C 357.354 127.550,357.093 127.405,356.495 127.405 C 355.942 127.405,355.674 127.275,355.674 127.007 C 355.674 126.732,355.397 126.609,354.775 126.609 C 354.101 126.609,353.843 126.477,353.739 126.078 C 353.633 125.676,353.377 125.547,352.677 125.547 C 351.977 125.547,351.720 125.419,351.615 125.017 C 351.514 124.630,351.253 124.486,350.655 124.486 C 350.102 124.486,349.834 124.356,349.834 124.088 C 349.834 123.812,349.557 123.689,348.936 123.689 C 348.261 123.689,348.004 123.557,347.899 123.159 C 347.783 122.715,347.537 122.628,346.408 122.628 C 345.384 122.628,345.056 122.531,345.056 122.230 C 345.056 121.925,344.721 121.831,343.628 121.831 C 342.422 121.831,342.177 121.749,342.060 121.301 C 341.935 120.822,341.698 120.770,339.640 120.770 C 337.867 120.770,337.359 120.687,337.359 120.400 C 337.359 119.823,336.737 119.708,333.621 119.708 C 331.222 119.708,330.723 119.639,330.723 119.310 C 330.723 118.970,329.971 118.912,325.547 118.912 L 320.372 118.912 320.372 112.276 C 320.372 105.817,320.357 105.640,319.841 105.640 C 319.343 105.640,319.310 105.463,319.310 102.829 C 319.310 100.240,319.268 100.006,318.779 99.878 C 318.331 99.761,318.248 99.516,318.248 98.310 C 318.248 97.217,318.155 96.881,317.850 96.881 C 317.536 96.881,317.452 96.510,317.452 95.131 C 317.452 93.604,317.384 93.363,316.921 93.242 C 316.522 93.138,316.390 92.880,316.390 92.205 C 316.390 91.584,316.267 91.307,315.992 91.307 C 315.690 91.307,315.594 90.980,315.594 89.955 C 315.594 88.826,315.506 88.580,315.063 88.464 C 314.664 88.360,314.532 88.102,314.532 87.428 C 314.532 86.806,314.409 86.530,314.134 86.530 C 313.890 86.530,313.736 86.281,313.736 85.888 C 313.736 84.971,313.472 84.406,313.044 84.406 C 312.808 84.406,312.674 84.110,312.674 83.585 C 312.674 82.987,312.530 82.726,312.143 82.625 C 311.744 82.521,311.612 82.263,311.612 81.588 C 311.612 80.967,311.490 80.690,311.214 80.690 C 310.995 80.690,310.816 80.500,310.816 80.267 C 310.816 80.034,310.577 79.782,310.285 79.705 C 309.908 79.607,309.754 79.343,309.754 78.793 C 309.754 78.350,309.584 77.954,309.356 77.866 C 309.137 77.782,308.958 77.547,308.958 77.344 C 308.958 77.141,308.719 76.974,308.427 76.974 C 308.001 76.974,307.896 76.797,307.896 76.076 C 307.896 75.401,307.765 75.144,307.366 75.039 C 307.074 74.963,306.835 74.710,306.835 74.477 C 306.835 74.245,306.656 74.054,306.437 74.054 C 306.218 74.054,306.038 73.864,306.038 73.631 C 306.038 73.399,305.800 73.146,305.508 73.070 C 305.127 72.970,304.977 72.708,304.977 72.141 C 304.977 71.574,304.827 71.311,304.446 71.212 C 304.154 71.135,303.915 70.908,303.915 70.706 C 303.915 70.504,303.736 70.338,303.517 70.338 C 303.296 70.338,303.119 70.102,303.119 69.808 C 303.119 69.454,302.942 69.277,302.588 69.277 C 302.234 69.277,302.057 69.100,302.057 68.746 C 302.057 68.451,301.880 68.215,301.659 68.215 C 301.440 68.215,301.261 68.036,301.261 67.817 C 301.261 67.596,301.025 67.419,300.730 67.419 C 300.376 67.419,300.199 67.242,300.199 66.888 C 300.199 66.596,300.076 66.357,299.925 66.357 C 299.775 66.357,299.268 65.939,298.799 65.428 C 298.330 64.917,297.810 64.499,297.644 64.499 C 297.477 64.499,297.279 64.260,297.202 63.968 C 297.101 63.582,296.840 63.437,296.243 63.437 C 295.690 63.437,295.421 63.307,295.421 63.039 C 295.421 62.820,295.242 62.641,295.023 62.641 C 294.804 62.641,294.625 62.451,294.625 62.218 C 294.625 61.985,294.386 61.733,294.094 61.656 C 293.802 61.580,293.563 61.360,293.563 61.168 C 293.563 60.976,293.324 60.743,293.033 60.650 C 292.741 60.558,292.502 60.311,292.502 60.102 C 292.502 59.844,292.202 59.721,291.573 59.721 C 290.821 59.721,290.644 59.620,290.644 59.190 C 290.644 58.837,290.467 58.660,290.113 58.660 C 289.818 58.660,289.582 58.483,289.582 58.261 C 289.582 57.983,289.302 57.863,288.653 57.863 C 287.901 57.863,287.724 57.762,287.724 57.332 C 287.724 56.903,287.547 56.802,286.795 56.802 C 286.122 56.802,285.866 56.685,285.866 56.379 C 285.866 56.146,285.627 55.893,285.335 55.817 C 285.043 55.740,284.804 55.513,284.804 55.311 C 284.804 55.071,284.494 54.944,283.906 54.944 C 283.231 54.944,282.974 54.812,282.869 54.413 C 282.768 54.026,282.507 53.882,281.909 53.882 C 281.356 53.882,281.088 53.752,281.088 53.484 C 281.088 53.178,280.749 53.086,279.628 53.086 C 278.345 53.086,278.169 53.021,278.169 52.555 C 278.169 52.125,277.992 52.024,277.240 52.024 C 276.628 52.024,276.311 51.899,276.311 51.659 C 276.311 51.295,275.217 50.962,274.021 50.962 C 273.638 50.962,273.391 50.806,273.391 50.564 C 273.391 50.248,273.007 50.166,271.533 50.166 C 269.852 50.166,269.675 50.115,269.675 49.635 C 269.675 49.155,269.498 49.104,267.817 49.104 C 266.342 49.104,265.959 49.022,265.959 48.706 C 265.959 48.376,265.457 48.308,263.039 48.308 C 260.296 48.308,260.119 48.276,260.119 47.777 C 260.119 47.257,259.942 47.246,251.095 47.246 C 242.247 47.246,242.070 47.257,242.070 47.777 C 242.070 48.276,241.893 48.308,239.151 48.308 C 236.732 48.308,236.231 48.376,236.231 48.706 C 236.231 49.022,235.848 49.104,234.373 49.104 C 232.692 49.104,232.515 49.155,232.515 49.635 C 232.515 50.115,232.338 50.166,230.657 50.166 C 229.182 50.166,228.799 50.248,228.799 50.564 C 228.799 50.808,228.551 50.962,228.157 50.962 C 227.241 50.962,226.676 51.226,226.676 51.654 C 226.676 51.920,226.310 52.024,225.379 52.024 C 224.306 52.024,224.059 52.115,223.944 52.555 C 223.838 52.961,223.582 53.086,222.852 53.086 C 222.181 53.086,221.898 53.204,221.898 53.484 C 221.898 53.762,221.618 53.882,220.969 53.882 C 220.217 53.882,220.040 53.983,220.040 54.413 C 220.040 54.842,219.863 54.944,219.111 54.944 C 218.462 54.944,218.182 55.064,218.182 55.342 C 218.182 55.610,217.914 55.740,217.361 55.740 C 216.763 55.740,216.502 55.884,216.401 56.271 C 216.296 56.670,216.039 56.802,215.364 56.802 C 214.643 56.802,214.466 56.906,214.466 57.332 C 214.466 57.686,214.289 57.863,213.935 57.863 C 213.640 57.863,213.404 58.040,213.404 58.261 C 213.404 58.540,213.124 58.660,212.475 58.660 C 211.723 58.660,211.546 58.761,211.546 59.190 C 211.546 59.544,211.369 59.721,211.015 59.721 C 210.723 59.721,210.484 59.895,210.484 60.107 C 210.484 60.339,210.111 60.563,209.555 60.668 C 209.023 60.768,208.626 61.000,208.626 61.211 C 208.626 61.413,208.388 61.579,208.096 61.579 C 207.666 61.579,207.565 61.402,207.565 60.650 C 207.565 60.001,207.445 59.721,207.167 59.721 C 206.948 59.721,206.768 59.531,206.768 59.298 C 206.768 59.066,206.530 58.813,206.238 58.736 C 205.857 58.637,205.707 58.374,205.707 57.807 C 205.707 57.241,205.557 56.978,205.176 56.879 C 204.884 56.802,204.645 56.571,204.645 56.364 C 204.645 56.158,204.466 55.920,204.247 55.836 C 204.028 55.752,203.849 55.517,203.849 55.313 C 203.849 55.110,203.610 54.944,203.318 54.944 C 202.964 54.944,202.787 54.767,202.787 54.413 C 202.787 54.118,202.610 53.882,202.389 53.882 C 202.170 53.882,201.991 53.653,201.991 53.373 C 201.991 52.582,201.705 52.024,201.299 52.024 C 201.095 52.024,200.929 51.845,200.929 51.626 C 200.929 51.407,200.764 51.228,200.562 51.228 C 200.360 51.228,200.132 50.989,200.056 50.697 C 199.979 50.405,199.741 50.166,199.525 50.166 C 199.309 50.166,199.070 49.927,198.994 49.635 C 198.918 49.343,198.665 49.104,198.432 49.104 C 198.200 49.104,198.009 48.925,198.009 48.706 C 198.009 48.487,197.844 48.308,197.642 48.308 C 197.440 48.308,197.212 48.069,197.136 47.777 C 197.060 47.485,196.807 47.246,196.574 47.246 C 196.342 47.246,196.151 47.067,196.151 46.848 C 196.151 46.629,195.986 46.450,195.784 46.450 C 195.582 46.450,195.354 46.211,195.278 45.919 C 195.202 45.627,194.949 45.388,194.716 45.388 C 194.484 45.388,194.293 45.217,194.293 45.008 C 194.293 44.799,194.054 44.552,193.762 44.459 C 193.470 44.367,193.232 44.120,193.232 43.910 C 193.232 43.653,192.932 43.530,192.303 43.530 C 191.551 43.530,191.374 43.429,191.374 42.999 C 191.374 42.704,191.197 42.468,190.975 42.468 C 190.756 42.468,190.577 42.289,190.577 42.070 C 190.577 41.851,190.387 41.672,190.154 41.672 C 189.922 41.672,189.669 41.433,189.593 41.141 C 189.516 40.848,189.230 40.610,188.954 40.610 C 188.679 40.610,188.454 40.444,188.454 40.241 C 188.454 39.835,187.896 39.549,187.105 39.549 C 186.825 39.549,186.596 39.370,186.596 39.151 C 186.596 38.932,186.371 38.752,186.096 38.752 C 185.819 38.752,185.534 38.515,185.457 38.222 C 185.356 37.835,185.095 37.691,184.497 37.691 C 183.944 37.691,183.676 37.561,183.676 37.293 C 183.676 37.074,183.505 36.894,183.296 36.894 C 183.087 36.894,182.840 36.656,182.747 36.364 C 182.634 36.006,182.346 35.833,181.864 35.833 C 181.437 35.833,181.016 35.619,180.818 35.302 C 180.607 34.963,180.199 34.771,179.693 34.771 C 179.164 34.771,178.898 34.638,178.898 34.373 C 178.898 34.095,178.618 33.975,177.969 33.975 C 177.217 33.975,177.040 33.874,177.040 33.444 C 177.040 33.014,176.864 32.913,176.111 32.913 C 175.463 32.913,175.182 32.793,175.182 32.515 C 175.182 32.237,174.902 32.117,174.253 32.117 C 173.501 32.117,173.324 32.016,173.324 31.586 C 173.324 31.144,173.148 31.055,172.263 31.055 C 171.532 31.055,171.201 30.940,171.201 30.685 C 171.201 30.222,170.623 29.993,169.454 29.993 C 168.825 29.993,168.547 29.871,168.547 29.595 C 168.547 29.290,168.208 29.197,167.087 29.197 C 165.804 29.197,165.627 29.133,165.627 28.666 C 165.627 28.200,165.450 28.135,164.167 28.135 C 163.047 28.135,162.707 28.043,162.707 27.737 C 162.707 27.421,162.324 27.339,160.849 27.339 C 159.168 27.339,158.991 27.289,158.991 26.808 C 158.991 26.317,158.814 26.277,156.633 26.277 C 154.499 26.277,154.262 26.227,154.137 25.747 C 154.005 25.243,153.775 25.216,149.726 25.216 C 146.106 25.216,145.455 25.155,145.455 24.818 C 145.455 24.477,144.702 24.419,140.279 24.419 C 135.855 24.419,135.103 24.477,135.103 24.818 M150.932 39.423 C 151.243 39.623,152.407 39.869,153.517 39.969 C 154.694 40.076,155.661 40.303,155.836 40.514 C 156.002 40.714,156.633 40.876,157.242 40.876 C 157.851 40.876,158.817 41.115,159.390 41.407 C 159.962 41.699,160.716 41.938,161.064 41.938 C 161.685 41.938,161.980 42.057,164.220 43.218 C 164.833 43.536,165.573 43.796,165.865 43.796 C 166.388 43.796,168.707 44.914,169.197 45.402 C 169.336 45.540,169.648 45.654,169.891 45.654 C 170.134 45.654,170.637 45.893,171.008 46.184 C 171.379 46.476,171.836 46.715,172.022 46.715 C 172.209 46.715,172.611 46.950,172.917 47.237 C 173.448 47.737,175.100 48.739,176.510 49.417 C 176.875 49.592,177.851 50.310,178.678 51.013 C 179.506 51.715,180.303 52.289,180.448 52.289 C 181.116 52.289,192.966 63.984,192.966 64.642 C 192.966 64.832,193.623 65.757,194.426 66.698 C 195.229 67.638,195.886 68.589,195.886 68.810 C 195.886 69.031,196.060 69.357,196.274 69.534 C 196.487 69.711,196.741 70.113,196.837 70.429 C 196.933 70.744,197.416 71.500,197.909 72.108 C 198.402 72.717,198.806 73.389,198.806 73.602 C 198.806 73.815,198.985 74.138,199.204 74.320 C 199.423 74.502,199.602 74.858,199.602 75.113 C 199.602 75.367,199.841 75.879,200.133 76.250 C 200.425 76.621,200.664 77.101,200.664 77.315 C 200.664 77.530,200.843 77.854,201.062 78.036 C 201.281 78.218,201.460 78.503,201.460 78.669 C 201.460 78.836,201.699 79.418,201.991 79.963 C 202.283 80.508,202.522 81.085,202.522 81.244 C 202.522 81.404,202.760 81.839,203.052 82.210 C 203.344 82.581,203.583 83.038,203.583 83.225 C 203.583 83.412,203.844 83.858,204.164 84.216 L 204.744 84.868 210.349 79.230 C 213.431 76.130,216.228 73.506,216.563 73.399 C 216.898 73.293,217.382 73.008,217.639 72.767 C 219.377 71.134,220.034 70.604,220.321 70.604 C 220.501 70.604,221.159 70.186,221.782 69.675 C 222.406 69.164,223.056 68.746,223.228 68.746 C 223.399 68.746,223.843 68.507,224.214 68.215 C 224.585 67.923,225.063 67.684,225.276 67.684 C 225.489 67.684,225.966 67.445,226.338 67.153 C 226.709 66.861,227.161 66.622,227.342 66.622 C 227.524 66.622,227.821 66.443,228.003 66.224 C 228.184 66.005,228.578 65.826,228.877 65.826 C 229.176 65.826,229.630 65.637,229.886 65.406 C 230.141 65.174,230.836 64.920,231.429 64.840 C 232.022 64.761,232.643 64.532,232.809 64.332 C 232.975 64.132,233.426 63.968,233.812 63.968 C 234.198 63.968,234.959 63.729,235.504 63.437 C 236.052 63.143,237.002 62.906,237.631 62.906 C 238.256 62.906,239.024 62.727,239.337 62.507 C 239.712 62.244,240.892 62.049,242.781 61.937 C 244.492 61.835,245.865 61.621,246.177 61.407 C 246.922 60.897,255.071 60.899,256.085 61.410 C 256.479 61.609,258.029 61.843,259.528 61.930 C 261.334 62.035,262.453 62.227,262.839 62.498 C 263.160 62.722,263.967 62.906,264.632 62.906 C 265.297 62.906,266.082 63.076,266.378 63.283 C 266.673 63.490,267.387 63.745,267.963 63.851 C 268.540 63.957,269.247 64.206,269.535 64.404 C 269.823 64.602,270.374 64.764,270.760 64.764 C 271.146 64.764,271.765 65.003,272.136 65.295 C 272.507 65.587,273.046 65.826,273.334 65.826 C 273.621 65.826,273.999 65.998,274.173 66.207 C 274.347 66.417,274.831 66.663,275.249 66.755 C 275.667 66.847,276.151 67.093,276.325 67.303 C 276.499 67.513,276.817 67.684,277.031 67.684 C 277.246 67.684,277.725 67.923,278.096 68.215 C 278.467 68.507,278.927 68.746,279.117 68.746 C 279.307 68.746,279.856 69.105,280.336 69.543 C 280.817 69.982,281.451 70.417,281.746 70.511 C 282.041 70.604,282.773 71.081,283.372 71.571 C 283.971 72.061,284.610 72.462,284.793 72.462 C 285.234 72.462,295.156 82.368,295.156 82.809 C 295.156 82.997,295.813 83.921,296.616 84.862 C 297.419 85.802,298.076 86.727,298.076 86.916 C 298.076 87.106,298.243 87.400,298.448 87.570 C 298.652 87.739,298.899 88.195,298.996 88.582 C 299.093 88.968,299.507 89.710,299.916 90.230 C 300.325 90.749,300.739 91.432,300.837 91.748 C 300.936 92.063,301.190 92.466,301.404 92.643 C 301.617 92.820,301.792 93.279,301.793 93.662 C 301.794 94.046,302.032 94.718,302.322 95.156 C 302.613 95.594,302.851 96.208,302.852 96.521 C 302.853 96.834,303.016 97.152,303.214 97.228 C 303.413 97.305,303.636 97.907,303.711 98.569 C 303.785 99.229,304.041 99.965,304.279 100.203 C 304.550 100.474,304.711 101.079,304.711 101.824 C 304.711 102.478,304.901 103.379,305.132 103.826 C 305.364 104.274,305.620 105.522,305.701 106.600 C 305.789 107.761,305.996 108.680,306.209 108.857 C 306.740 109.297,306.738 123.750,306.207 124.190 C 305.977 124.382,305.778 125.404,305.660 127.010 C 305.559 128.396,305.304 129.858,305.095 130.259 C 304.688 131.040,304.595 132.389,304.914 132.883 C 305.054 133.099,309.041 133.214,319.044 133.290 C 331.670 133.386,333.066 133.440,333.904 133.862 C 334.412 134.118,335.517 134.400,336.358 134.488 C 337.199 134.575,338.022 134.810,338.187 135.008 C 338.351 135.206,338.830 135.368,339.250 135.368 C 339.671 135.368,340.461 135.607,341.006 135.899 C 341.550 136.191,342.278 136.430,342.622 136.430 C 342.966 136.430,343.551 136.669,343.922 136.961 C 344.293 137.253,344.805 137.492,345.060 137.492 C 345.314 137.492,345.671 137.671,345.853 137.890 C 346.034 138.109,346.409 138.288,346.684 138.288 C 346.960 138.288,347.390 138.527,347.640 138.819 C 347.890 139.111,348.336 139.350,348.632 139.351 C 348.928 139.352,349.536 139.695,349.982 140.113 C 350.429 140.532,351.036 140.951,351.332 141.045 C 351.628 141.139,352.338 141.632,352.909 142.141 C 353.481 142.649,354.105 143.065,354.296 143.065 C 354.734 143.066,362.044 150.322,362.044 150.756 C 362.044 150.932,362.641 151.746,363.371 152.565 C 364.101 153.384,364.698 154.188,364.698 154.351 C 364.698 154.515,365.176 155.289,365.760 156.072 C 366.344 156.854,366.821 157.638,366.821 157.812 C 366.821 157.987,367.001 158.279,367.220 158.461 C 367.439 158.642,367.618 158.999,367.618 159.254 C 367.618 159.508,367.857 160.020,368.149 160.391 C 368.441 160.762,368.679 161.322,368.679 161.635 C 368.679 161.948,368.908 162.646,369.188 163.186 C 370.165 165.074,370.516 166.035,370.670 167.250 C 370.755 167.924,370.995 168.700,371.204 168.975 C 371.420 169.262,371.586 170.091,371.591 170.915 C 371.596 171.882,371.746 172.516,372.046 172.848 C 372.720 173.592,372.715 187.395,372.041 188.140 C 371.754 188.457,371.599 189.089,371.599 189.942 C 371.599 190.717,371.425 191.504,371.174 191.862 C 370.941 192.196,370.685 193.177,370.607 194.042 C 370.528 194.908,370.301 195.751,370.103 195.916 C 369.904 196.081,369.740 196.411,369.739 196.648 C 369.738 196.886,369.500 197.439,369.210 197.877 C 368.920 198.315,368.682 198.985,368.681 199.367 C 368.680 199.749,368.441 200.365,368.149 200.736 C 367.857 201.107,367.618 201.586,367.618 201.801 C 367.618 202.016,367.439 202.340,367.220 202.522 C 367.001 202.703,366.821 202.999,366.821 203.179 C 366.821 203.360,366.403 204.054,365.893 204.724 C 365.382 205.393,364.964 206.056,364.964 206.198 C 364.964 206.339,364.486 207.060,363.902 207.798 C 363.318 208.537,362.840 209.272,362.840 209.431 C 362.840 209.844,354.759 217.916,354.346 217.916 C 354.157 217.916,353.493 218.334,352.869 218.845 C 352.246 219.356,351.607 219.774,351.449 219.774 C 351.292 219.774,350.700 220.192,350.134 220.703 C 349.569 221.214,348.928 221.632,348.710 221.632 C 348.492 221.632,348.009 221.871,347.638 222.163 C 347.267 222.455,346.788 222.694,346.573 222.694 C 346.359 222.694,346.034 222.873,345.853 223.092 C 345.671 223.311,345.314 223.490,345.060 223.490 C 344.805 223.490,344.293 223.729,343.922 224.021 C 343.551 224.313,342.908 224.553,342.493 224.554 C 342.078 224.555,341.380 224.793,340.942 225.083 C 340.504 225.373,339.772 225.611,339.316 225.612 C 338.859 225.613,338.351 225.776,338.187 225.974 C 338.022 226.173,337.163 226.410,336.278 226.503 C 335.392 226.596,334.411 226.851,334.096 227.072 C 333.666 227.373,332.737 227.474,330.332 227.480 C 327.947 227.487,327.010 227.587,326.625 227.878 C 325.867 228.452,72.961 228.472,72.486 227.899 C 72.258 227.624,71.174 227.499,68.273 227.413 C 65.291 227.324,64.178 227.192,63.570 226.855 C 63.132 226.612,62.275 226.413,61.665 226.412 C 61.055 226.411,60.395 226.249,60.198 226.053 C 60.002 225.856,59.366 225.606,58.786 225.497 C 58.205 225.389,57.432 225.146,57.067 224.959 C 55.595 224.203,53.939 223.490,53.654 223.490 C 53.487 223.490,53.351 223.373,53.351 223.230 C 53.351 223.087,53.023 222.888,52.621 222.788 C 52.220 222.688,51.593 222.413,51.228 222.175 C 50.074 221.425,49.520 221.108,48.891 220.836 C 48.554 220.691,47.731 220.154,47.061 219.643 C 46.391 219.131,45.730 218.713,45.593 218.713 C 44.950 218.713,35.302 209.064,35.302 208.422 C 35.302 208.284,34.883 207.624,34.372 206.954 C 33.860 206.284,33.320 205.461,33.171 205.124 C 33.022 204.788,32.610 204.035,32.256 203.451 C 31.901 202.867,31.535 202.210,31.441 201.991 C 31.347 201.772,30.864 200.774,30.366 199.774 C 29.869 198.773,29.463 197.723,29.463 197.441 C 29.463 197.158,29.224 196.458,28.932 195.886 C 28.640 195.314,28.401 194.533,28.401 194.152 C 28.401 193.771,28.240 193.298,28.043 193.101 C 27.846 192.904,27.612 192.045,27.522 191.191 C 27.433 190.338,27.170 189.258,26.937 188.791 C 26.377 187.669,26.448 172.351,27.016 171.668 C 27.204 171.442,27.427 170.618,27.513 169.836 C 27.598 169.054,27.833 168.150,28.034 167.826 C 28.236 167.503,28.401 166.964,28.401 166.628 C 28.401 166.292,28.640 165.572,28.932 165.027 C 29.224 164.482,29.463 163.803,29.463 163.519 C 29.463 163.005,30.586 160.683,31.069 160.199 C 31.207 160.060,31.321 159.687,31.321 159.369 C 31.321 159.051,31.494 158.647,31.705 158.472 C 31.917 158.296,32.224 157.744,32.389 157.245 C 32.554 156.746,32.799 156.337,32.934 156.337 C 33.068 156.337,33.179 156.163,33.179 155.949 C 33.179 155.568,35.460 152.572,35.882 152.400 C 36.001 152.351,36.098 152.075,36.098 151.785 C 36.098 151.182,44.114 143.066,44.710 143.066 C 44.916 143.066,45.243 142.914,45.436 142.728 C 46.238 141.957,48.226 140.458,48.901 140.116 C 49.300 139.913,51.091 139.001,52.882 138.088 C 54.673 137.176,56.317 136.425,56.536 136.420 C 56.755 136.416,57.412 136.181,57.996 135.899 C 58.580 135.617,59.331 135.382,59.664 135.377 C 59.998 135.372,60.535 135.203,60.859 135.002 C 61.182 134.800,62.086 134.565,62.868 134.480 C 63.650 134.395,64.460 134.184,64.667 134.012 C 64.888 133.829,66.726 133.597,69.085 133.456 C 71.307 133.323,73.239 133.101,73.378 132.964 C 73.516 132.826,74.608 132.714,75.804 132.714 C 77.507 132.714,78.013 132.626,78.134 132.310 C 78.368 131.700,77.995 129.450,77.593 129.048 C 77.399 128.854,77.239 128.375,77.238 127.984 C 77.237 127.593,77.062 126.939,76.850 126.532 C 76.637 126.124,76.381 125.348,76.280 124.806 C 76.180 124.265,75.950 123.583,75.770 123.291 C 75.590 122.999,75.361 122.107,75.262 121.307 C 75.163 120.508,74.965 119.713,74.823 119.541 C 74.680 119.369,74.467 118.087,74.349 116.691 C 74.230 115.284,73.978 113.964,73.783 113.729 C 73.282 113.125,73.241 97.940,73.739 97.340 C 73.925 97.116,74.173 95.791,74.291 94.395 C 74.408 92.999,74.628 91.703,74.778 91.516 C 74.928 91.328,75.132 90.501,75.231 89.678 C 75.331 88.855,75.581 87.959,75.787 87.687 C 75.993 87.415,76.165 86.894,76.171 86.530 C 76.177 86.165,76.355 85.532,76.568 85.125 C 76.780 84.717,77.034 83.941,77.131 83.400 C 77.227 82.858,77.458 82.236,77.642 82.017 C 77.827 81.798,78.060 81.118,78.160 80.506 C 78.261 79.894,78.513 79.253,78.720 79.080 C 78.928 78.908,79.098 78.614,79.098 78.426 C 79.098 78.003,80.478 75.282,80.754 75.160 C 80.865 75.112,80.956 74.802,80.956 74.472 C 80.956 74.141,81.194 73.655,81.486 73.391 C 81.778 73.127,82.017 72.743,82.017 72.537 C 82.017 72.332,82.435 71.617,82.946 70.948 C 83.457 70.279,83.875 69.619,83.875 69.482 C 83.875 69.345,84.293 68.723,84.804 68.100 C 85.315 67.476,85.733 66.843,85.733 66.692 C 85.733 66.541,86.387 65.718,87.185 64.861 C 87.984 64.005,88.641 63.121,88.645 62.896 C 88.655 62.402,97.760 53.353,98.256 53.345 C 98.449 53.342,99.204 52.789,99.934 52.116 C 100.664 51.444,101.619 50.739,102.057 50.551 C 102.495 50.362,103.263 49.840,103.764 49.391 C 104.265 48.941,104.865 48.573,105.098 48.573 C 105.332 48.573,105.727 48.334,105.977 48.042 C 106.227 47.750,106.648 47.512,106.912 47.512 C 107.176 47.512,107.506 47.398,107.644 47.260 C 108.005 46.900,110.393 45.654,110.722 45.654 C 110.874 45.654,111.302 45.415,111.673 45.123 C 112.044 44.831,112.556 44.592,112.810 44.592 C 113.065 44.592,113.421 44.413,113.603 44.194 C 113.785 43.975,114.203 43.796,114.532 43.796 C 114.861 43.796,115.269 43.629,115.438 43.425 C 115.607 43.222,116.183 42.973,116.718 42.872 C 117.253 42.772,117.932 42.521,118.227 42.314 C 118.523 42.107,119.068 41.938,119.439 41.938 C 119.810 41.938,120.560 41.699,121.104 41.407 C 121.649 41.115,122.603 40.872,123.224 40.867 C 123.845 40.863,124.572 40.693,124.840 40.490 C 125.108 40.287,126.243 40.037,127.362 39.936 C 128.481 39.834,129.563 39.616,129.767 39.451 C 130.679 38.713,149.787 38.688,150.932 39.423 " stroke="none" fill="#3c9cd4" fill-rule="evenodd"></path><path id="path2" d="" stroke="none" fill="#100cce8" fill-rule="evenodd"></path><path id="path3" d="" stroke="none" fill="#100cce8" fill-rule="evenodd"></path><path id="path4" d="" stroke="none" fill="#100cce8" fill-rule="evenodd"></path></g></svg>